<?xml version="1.0" encoding="utf-8"?>
<!-- Generator: Adobe Illustrator 23.0.1, SVG Export Plug-In . SVG Version: 6.00 Build 0)  -->
<svg version="1.1" xmlns="http://www.w3.org/2000/svg" xmlns:xlink="http://www.w3.org/1999/xlink" x="0px" y="0px"
	 viewBox="0 0 750 500" style="enable-background:new 0 0 750 500;" xml:space="preserve">
<style type="text/css">
	.st0{display:none;}
	.st1{display:inline;fill:#FFFFFF;}
	.st2{fill:#DBF6FF;}
	.st3{fill:#BCDFEB;}
	.st4{fill:#FAFAFA;}
	.st5{fill:#D9D9D9;}
	.st6{fill:#B0B0B0;}
	.st7{fill:none;stroke:#52BFDE;stroke-width:2.5409;stroke-miterlimit:10;stroke-dasharray:7.6228;}
	.st8{fill:#429C9B;}
	.st9{fill:none;stroke:#57BABD;stroke-width:2.0199;stroke-miterlimit:10;}
	.st10{fill:none;stroke:#57BABD;stroke-width:1.6117;stroke-miterlimit:10;}
	.st11{fill:none;stroke:#61A9B8;stroke-width:2.5409;stroke-miterlimit:10;}
	.st12{fill:#61A9B8;}
	.st13{fill:none;stroke:#85CCE0;stroke-width:2.5409;stroke-miterlimit:10;}
	.st14{fill:none;stroke:#85CCE0;stroke-width:1.9105;stroke-miterlimit:10;}
	.st15{fill:#101439;}
	.st16{fill:#1C2363;}
	.st17{fill:#DCE8F4;}
	.st18{fill:#A6AFB8;}
	.st19{fill:#FC6047;}
	.st20{fill:#B7FC47;}
	.st21{fill:#C3CED9;}
	.st22{fill:#A7B1BA;}
	.st23{fill:#E0EDFA;}
	.st24{fill:#CEDAE6;}
	.st25{opacity:0.44;}
	.st26{fill:#FFFFFF;}
	.st27{fill:#EE8F23;}
	.st28{fill:#DBDBDB;}
	.st29{fill:#FFAC42;}
	.st30{fill:#FFBE6E;}
	.st31{fill:none;stroke:#FAFAFA;stroke-width:3.8114;stroke-linejoin:round;stroke-miterlimit:10;}
</style>
<g id="BACKGROUND" class="st0">
	<rect class="st1" width="750" height="500"/>
</g>
<g id="OBJECTS">
	<g>
		<g>
			<g>
				<g>
					<path class="st2" d="M521.4,37c10.9-3.5,22.5-4.2,33.9-3.5c16.4,1,33.5,5,45.5,16.2c7.6,7,12.6,16.3,18.8,24.7
						c17.7,24.3,45.1,41.6,57.1,69.2c10.2,23.6,6.4,53.2-11.2,71.9c-17.6,18.7-48.6,24-70.3,10.4c-20.9-13.1-30.1-39.1-49.3-54.7
						c-13.7-11.1-31.3-16.1-46.1-25.6c-15.2-9.7-27.5-25-30.3-42.9c-2.3-14.8,3-30.9,14.5-40.6C495.3,52.6,507.1,41.5,521.4,37z"/>
					<path class="st3" d="M616.1,218c-18.9,3-37.3-1.9-56.1-5.3c-18.1-3.3-36.1-9.6-50.5-21.4c-6.6-5.4-12.4-12.1-15-20.3
						c-3.7-11.6-0.3-24.1-0.4-36.3c0-14.3-3.6-28-13.5-38.5c-6-6.4-13-12-17.8-19.4c-9.9-15.5-2.2-36.2,13.2-44.9
						c14.1-7.9,32-4.8,46.6,2.1c14.6,6.9,27.4,17.2,42.1,23.9c16.1,7.4,33.7,10.3,51.4,12c13.6,1.3,27.4-0.3,38.4,7.7
						c7.9,5.7,13.5,14.2,16.8,23.4c6.2,17.4,4.9,37.8,2.1,55.8c-1.9,12-5.7,23.9-12.7,33.9c-8.6,12.3-21.6,21.1-36,25.3
						C621.9,216.9,619,217.6,616.1,218z"/>
					<path class="st2" d="M586.4,449.6H147.9c-33.1-25.3-56.1-61.3-62.3-102.5c-2.6-17.1-1.1-37.4,12.8-47.7
						c21.5-15.8,53.7,4.1,77.9-6.9c15.6-7.1,23.3-25.5,23.5-42.7c0.2-17.2-5.6-33.7-10-50.3c-4.3-16.6-7.2-34.5-1.3-50.7
						c5.9-16.1,23.1-29.2,39.8-24.9c14.2,3.7,23.3,18.1,36.9,23.6c14.2,5.7,30.7,0.5,43.3-8.2c12.6-8.7,22.6-20.6,34.4-30.3
						c20.7-17.2,48-27.7,74.6-23.7c26.6,4,51.2,24.6,55.3,51.1c3.4,21.7-5.7,46.8,7.6,64.3c15,19.7,46.4,14.2,68.1,26.2
						c17.7,9.8,27.1,32.4,21.6,51.8c-5.6,19.8-24.7,36.5-21.6,56.8c2.2,14.6,15.2,24.7,24.3,36.3
						C590.3,394.2,598.2,423.8,586.4,449.6z"/>
					<path class="st3" d="M565.9,449.6H190.1c-11.4-10.4-24.2-20-30.7-34c-6.5-14-6.5-32.3,4.2-43.4c12.9-13.5,34.4-11.7,52.5-16.1
						c20.9-5.2,39.9-21.9,42.6-43.3c3.5-27.6-19.6-52.7-18.2-80.5c1.1-21.9,19.7-41.5,41.5-43.9c14.7-1.6,30,3.8,44.2-0.3
						c13.2-3.8,22.7-15,34.1-22.6c13.4-8.9,30.6-12.7,46.1-8.3c15.5,4.4,28.6,17.8,30.7,33.8c2.2,17-7,36.3,2.8,50.3
						c7.3,10.5,21.9,12.5,34.6,12.1c12.8-0.4,26.3-2.1,37.6,4c10.4,5.7,16.6,17.4,17.8,29.2c1.2,11.8-2.1,23.7-7,34.5
						c-4.2,9.5-9.7,18.4-12.9,28.3c-3.2,9.9-3.9,21.2,1.4,30.2c5.5,9.4,16.1,14.3,24.8,21C551.3,412,564.7,430.3,565.9,449.6z"/>
					<g>
						<polygon class="st4" points="534.4,84.4 556.1,139.6 602.4,113.5 						"/>
						<polygon class="st5" points="534.4,84.4 577.1,127.8 588.7,121.2 						"/>
						<polygon class="st5" points="588.7,121.2 580.6,141.3 577.1,127.8 						"/>
						<polygon class="st6" points="580.6,141.3 570.6,131.4 577.1,127.8 						"/>
					</g>
					<path class="st7" d="M250.5,432.5c-48.9-12.9-91.6-47.8-113.9-93.2c-9.2-18.7-15.1-39.6-13.7-60.4
						c1.4-20.8,10.7-41.7,27.4-54.2c16.7-12.5,41.1-15.2,58.8-4.1c17.1,10.7,25.2,31.3,40,45c17.7,16.4,45.8,21.2,67.1,9.9
						c21.3-11.2,33.3-38.5,25.6-61.3c-7.2-21.1-27.6-34.3-45.3-47.9c-17.7-13.6-35.3-32.7-32.8-54.9c2.2-19.1,19-33.4,36.6-40.8
						C334.3,56.4,378,62.7,401,91.3c24.8,30.7,20,75.6,8.9,113.5c-11.2,37.9-27.7,76.2-22.1,115.4c4.6,32.5,24.8,61.7,51.5,80.8
						c26.7,19.1,59.5,28.5,92.3,30.5c32.7,2,67.8-4.1,92-26.2c24.2-22.1,32.4-63.3,11-88.1c-11.1-12.8-27.6-19.4-43.5-25.3
						c-15.9-5.9-32.5-12.1-44-24.5c-11.5-12.4-16-33.2-5.1-46.3c12.5-15.1,46-16.8,57.8-32.4c8.4-11.2-1.4-32.7-11-43.3"/>
					<g>
						<path class="st8" d="M223.3,374.6c-21.1-13.9-40-31.3-55.6-51.2c-6.5-8.4-12.5-17.2-16.5-27.1c-4-9.8-5.8-20.7-3.9-31.1
							c1.4-7.5,5.5-15.3,12.7-17.6c5.6-1.9,12,0.1,16.7,3.7c4.7,3.6,8,8.8,10.9,13.9c11.3,20,18.2,42,26.5,63.4
							c4,10.3,8.4,20.4,13.7,30c2.6,4.8,5.5,9.5,8.6,13.9c2.9,4.1,8.1,8.4,9.8,12.8C242.2,388.6,227.1,377.1,223.3,374.6z"/>
						<path class="st9" d="M163.8,258.8c10.3,43.8,34.6,84.2,68.5,113.9"/>
					</g>
					<g>
						<path class="st8" d="M504.8,374.8C523,366,539.7,354.2,554,340c6-5.9,11.7-12.4,15.8-19.7c4.1-7.4,6.7-15.8,6.3-24.3
							c-0.3-6.1-2.8-12.6-8.2-15.3c-4.3-2.1-9.5-1.2-13.6,1.2c-4.1,2.4-7.2,6.1-10.1,9.9c-11,14.6-18.7,31.4-27.5,47.4
							c-4.2,7.7-8.7,15.3-13.9,22.4c-2.6,3.5-5.3,6.9-8.3,10.1c-2.7,2.9-7.2,5.8-9.1,9.1C488.4,383.9,501.5,376.4,504.8,374.8z"/>
						<path class="st10" d="M563.8,289.3c-12.7,33.6-36.1,63.1-65.9,83.1"/>
					</g>
					<g>
						<path class="st11" d="M232.4,345.9c11.4-56.1-0.8-116.5-32.8-163.9"/>
						<path class="st12" d="M203,187.6c-9.2-3-17.2-9.4-22.2-17.6c-5-8.3-6.9-18.3-5.3-27.8c9.7,2.6,18.9,8.6,24,17.3
							C204.7,168,205.2,177.8,203,187.6z"/>
						<g>
							<g>
								<path class="st12" d="M213.2,205.7c-2.1-7.1-1.5-15,1.5-21.8c3.1-6.8,8.6-12.4,15.4-15.5c2.6,7.3,2.7,15.8-0.5,22.9
									C226.4,198.3,220.4,202.9,213.2,205.7z"/>
								<path class="st12" d="M213.8,205c-5.6-4.9-13-7.7-20.4-7.8c-7.4-0.1-14.9,2.6-20.6,7.5c5.6,5.4,13.2,9.1,21,9.1
									C201.6,213.9,208.2,210.4,213.8,205z"/>
							</g>
							<g>
								<path class="st12" d="M224.7,234.5c-0.8-7.4,1.1-15.1,5.3-21.2c4.2-6.1,10.7-10.7,17.9-12.6c1.3,7.7,0,16-4.5,22.4
									C239,229.5,232.4,233,224.7,234.5z"/>
								<path class="st12" d="M225.5,234c-4.7-5.8-11.5-9.8-18.8-11.2c-7.3-1.3-15.1,0-21.5,3.8c4.5,6.3,11.4,11.3,19,12.6
									C211.9,240.6,219,238.3,225.5,234z"/>
							</g>
							<g>
								<path class="st12" d="M232.4,263.3c-0.2-7.4,2.4-14.9,7.1-20.7c4.7-5.8,11.6-9.7,18.9-11c0.6,7.7-1.4,16-6.4,21.9
									C247.1,259.6,240.1,262.5,232.4,263.3z"/>
								<path class="st12" d="M233.2,262.8c-4.1-6.2-10.6-10.8-17.7-12.8c-7.2-2-15.1-1.3-21.8,1.9c4,6.7,10.4,12.2,17.9,14.2
									C219,268.2,226.4,266.6,233.2,262.8z"/>
							</g>
							<g>
								<path class="st12" d="M236.8,295c1-7.4,4.7-14.4,10.2-19.3c5.6-5,12.9-7.8,20.4-8c-0.6,7.7-3.9,15.5-9.7,20.7
									C251.9,293.6,244.6,295.4,236.8,295z"/>
								<path class="st12" d="M237.7,294.7c-3.1-6.8-8.8-12.3-15.5-15.4c-6.8-3.1-14.7-3.6-21.8-1.5c2.9,7.2,8.3,13.7,15.4,16.9
									C222.9,297.8,230.4,297.3,237.7,294.7z"/>
							</g>
						</g>
					</g>
					<g>
						<path class="st11" d="M497.2,365.2c-12.3-55.9-1.2-116.5,30.1-164.4"/>
						<path class="st12" d="M524,206.4c9.1-3.2,17-9.7,21.9-18c4.8-8.3,6.6-18.4,4.8-27.9c-9.7,2.8-18.7,9-23.7,17.7
							C522,186.9,521.6,196.7,524,206.4z"/>
						<g>
							<g>
								<path class="st12" d="M514.1,224.7c2-7.2,1.3-15.1-1.9-21.8c-3.2-6.7-8.8-12.3-15.6-15.3c-2.5,7.4-2.5,15.8,0.9,22.8
									C500.8,217.5,506.8,222,514.1,224.7z"/>
								<path class="st12" d="M513.5,224.1c5.5-5,12.9-7.9,20.3-8.1c7.4-0.2,14.9,2.4,20.7,7.1c-5.5,5.5-13,9.3-20.8,9.5
									C525.9,232.7,519.2,229.4,513.5,224.1z"/>
							</g>
							<g>
								<path class="st12" d="M503,253.7c0.7-7.4-1.3-15.1-5.7-21.1c-4.3-6.1-10.8-10.5-18.1-12.3c-1.1,7.7,0.3,16,4.8,22.3
									C488.7,249,495.4,252.3,503,253.7z"/>
								<path class="st12" d="M502.3,253.2c4.6-5.9,11.3-10,18.6-11.5c7.3-1.5,15.1-0.2,21.6,3.4c-4.4,6.4-11.2,11.4-18.8,13
									C516,259.6,508.8,257.4,502.3,253.2z"/>
							</g>
							<g>
								<path class="st12" d="M495.9,282.7c0.1-7.4-2.7-14.9-7.5-20.6c-4.8-5.7-11.7-9.5-19.1-10.7c-0.5,7.8,1.7,15.9,6.8,21.8
									C481.2,279.2,488.1,281.9,495.9,282.7z"/>
								<path class="st12" d="M495.1,282.2c4-6.3,10.4-11,17.5-13.1c7.1-2.1,15-1.6,21.8,1.5c-3.9,6.7-10.2,12.4-17.6,14.5
									C509.3,287.3,502,285.8,495.1,282.2z"/>
							</g>
							<g>
								<path class="st12" d="M492,314.4c-1.1-7.4-4.9-14.3-10.6-19.1c-5.6-4.9-13.1-7.6-20.5-7.6c0.7,7.7,4.2,15.5,10.1,20.5
									C476.9,313.3,484.2,314.9,492,314.4z"/>
								<path class="st12" d="M491.1,314.1c3-6.8,8.5-12.5,15.3-15.6c6.7-3.2,14.6-3.9,21.8-1.9c-2.8,7.3-8.1,13.8-15.2,17.1
									C506,317,498.5,316.6,491.1,314.1z"/>
							</g>
						</g>
					</g>
					<g>
						<path class="st12" d="M223.6,402.9c3.1-5.7,7.2-10.9,9.9-16.7c-7.2-9.2-15.9-17.4-25-24.7c-5.9-4.7-12.2-9.2-18.6-13.3
							c-5.9,4.7-11.8,9.4-17.6,14c1-8.2,1.6-15.3,2.5-23c-13.1-7.1-26.8-12.9-41-17.4c-3.3,5.3-6,10.8-10.4,15.4
							c0.1-6-0.5-12.3-1.3-18.7c-13.1-3.4-26.5-5.6-39.9-6.4c0,5.4,0.3,10.8,0.9,16.2c3.5-1.1,6.2-4,9.9-4.6
							c-2.5,5.9-4.7,12.5-7.6,18.5c3.2,14.3,8.7,28.1,16.1,40.8c6.2-3.6,12-8.6,19.4-11.7c-1.3,11.4-1.3,23.3-2.3,34.8
							c3.9,4.3,8.1,8.3,12.6,12c7.9,6.5,16.5,12.1,25.6,16.7c1.9-7.1,3.8-14.1,8.4-20c5.4,10.3,11.2,19.4,16.1,29.5
							c20.4,5.8,42.2,7,63,3c3.5-0.7,6.3-6.2,7.4-9.5s0.9-7,0.4-10.5c-1.5-11-5.6-21.2-11.3-30.5
							C234.8,398.2,228.7,399.9,223.6,402.9z"/>
						<path class="st13" d="M229.5,436.6c-48-28.2-91.9-63.5-129.9-104.2"/>
					</g>
					<g>
						<path class="st12" d="M507.4,414.2c-2.9-3.9-6.5-7.3-9.2-11.4c4.4-7.6,10-14.7,16-21c3.9-4.2,8.1-8.1,12.4-11.9
							c4.9,2.9,9.8,5.7,14.6,8.6c-1.6-6-2.8-11.2-4.3-16.9c9-6.7,18.6-12.5,28.6-17.3c3,3.6,5.7,7.4,9.4,10.3
							c-0.7-4.5-0.9-9.2-1-14.1c9.4-3.9,19.1-7,29-9.1c0.6,4,1,8.1,1.1,12.2c-2.7-0.4-5.1-2.3-7.9-2.3c2.5,4.2,4.8,8.8,7.6,13
							c-0.9,11-3.5,21.9-7.7,32.1c-5-2-9.8-5.2-15.7-6.7c2.2,8.3,3.5,17.2,5.4,25.7c-2.5,3.6-5.2,7-8.1,10.3
							c-5.1,5.7-11,10.8-17.3,15.2c-2.1-5.1-4.3-10.1-8.4-14c-2.9,8.2-6.3,15.6-8.9,23.7c-14.6,6.5-30.6,9.7-46.6,9
							c-2.6-0.1-5.4-3.9-6.5-6.3c-1.2-2.4-1.4-5.1-1.4-7.7c0-8.3,1.9-16.3,5.2-23.9C498.6,411.9,503.3,412.5,507.4,414.2z"/>
						<path class="st14" d="M506.7,439.9c32.7-26.2,61.7-57.1,85.6-91.5"/>
					</g>
					<g>
						<g>
							<path class="st15" d="M503.2,449.6H224.6c-6,0-10.8-4.8-10.8-10.8V260.1c0-6,4.8-10.8,10.8-10.8h278.6
								c6,0,10.8,4.8,10.8,10.8v178.7C514,444.8,509.1,449.6,503.2,449.6z"/>
							
								<ellipse transform="matrix(0.2307 -0.973 0.973 0.2307 45.6977 756.6411)" class="st16" cx="501.3" cy="349.4" rx="9.1" ry="9.1"/>
							<path class="st16" d="M220.1,383.3L220.1,383.3c-1.6,0-2.9-1.3-2.9-2.9v-62c0-1.6,1.3-2.9,2.9-2.9l0,0c1.6,0,2.9,1.3,2.9,2.9
								v62C223,382,221.7,383.3,220.1,383.3z"/>
							<g>
								<rect x="227.1" y="256.6" class="st17" width="261.6" height="185.6"/>
								<g>
									<rect x="227.1" y="256.6" class="st18" width="261.6" height="12.5"/>
									<g>
										<rect x="231.4" y="263.4" class="st19" width="3.3" height="4.2"/>
										<rect x="235.7" y="260.5" class="st19" width="3.3" height="7.1"/>
										<rect x="240.3" y="258.4" class="st19" width="3.3" height="9.2"/>
									</g>
									<g>
										<path class="st17" d="M467.9,259.2v0.6c0,0.5-0.4,0.9-0.9,0.9h-1c-0.5,0-0.9,0.4-0.9,0.9v2.7c0,0.5,0.4,0.9,0.9,0.9h1
											c0.5,0,0.9,0.4,0.9,0.9v0.6c0,0.5,0.4,0.9,0.9,0.9h13.6c0.5,0,0.9-0.4,0.9-0.9v-7.4c0-0.5-0.4-0.9-0.9-0.9h-13.6
											C468.3,258.3,467.9,258.7,467.9,259.2z"/>
										<path class="st20" d="M482.5,267H480c-0.2,0-0.3-0.1-0.3-0.3v-7.6c0-0.2,0.1-0.3,0.3-0.3h2.4c0.2,0,0.3,0.1,0.3,0.3v7.6
											C482.8,266.8,482.6,267,482.5,267z"/>
										<path class="st20" d="M478.7,267h-2.4c-0.2,0-0.3-0.1-0.3-0.3v-7.6c0-0.2,0.1-0.3,0.3-0.3h2.4c0.2,0,0.3,0.1,0.3,0.3v7.6
											C479,266.8,478.9,267,478.7,267z"/>
										<path class="st20" d="M474.9,267h-2.4c-0.2,0-0.3-0.1-0.3-0.3v-7.6c0-0.2,0.1-0.3,0.3-0.3h2.4c0.2,0,0.3,0.1,0.3,0.3v7.6
											C475.2,266.8,475.1,267,474.9,267z"/>
									</g>
									<path class="st17" d="M461.1,262.9c0,1.9-1.6,3.5-3.5,3.5c-1.9,0-3.5-1.6-3.5-3.5c0-1.9,1.6-3.5,3.5-3.5
										C459.5,259.4,461.1,260.9,461.1,262.9z"/>
								</g>
							</g>
							<rect x="243.7" y="283.1" class="st21" width="228.5" height="144.8"/>
							<rect x="243.7" y="283.1" class="st22" width="228.5" height="12.5"/>
							<g>
								<rect x="318" y="302.1" class="st23" width="149.6" height="5.9"/>
								<rect x="318" y="313.4" class="st23" width="82.6" height="5.9"/>
								<rect x="318" y="324.7" class="st23" width="44.4" height="5.9"/>
							</g>
							<g>
								<rect x="318" y="344.3" class="st23" width="149.6" height="5.9"/>
								<rect x="318" y="355.6" class="st23" width="82.6" height="5.9"/>
								<rect x="318" y="366.9" class="st23" width="44.4" height="5.9"/>
							</g>
							<g>
								<rect x="318" y="385.5" class="st23" width="149.6" height="5.9"/>
								<rect x="318" y="396.8" class="st23" width="82.6" height="5.9"/>
								<rect x="318" y="408.1" class="st23" width="44.4" height="5.9"/>
							</g>
							<g>
								<rect x="252.6" y="302.1" class="st23" width="58" height="32.7"/>
								<polygon class="st24" points="252.6,334.7 281.6,318.4 310.6,334.7 								"/>
								<polygon class="st24" points="310.6,302.1 281.6,318.4 252.6,302.1 								"/>
							</g>
							<g>
								<rect x="252.6" y="344.1" class="st23" width="58" height="32.7"/>
								<polygon class="st24" points="252.6,376.8 281.6,360.4 310.6,376.8 								"/>
								<polygon class="st24" points="310.6,344.1 281.6,360.4 252.6,344.1 								"/>
							</g>
							<g>
								<rect x="252.6" y="386.1" class="st23" width="58" height="32.7"/>
								<polygon class="st24" points="252.6,418.8 281.6,402.4 310.6,418.8 								"/>
								<polygon class="st24" points="310.6,386.1 281.6,402.4 252.6,386.1 								"/>
							</g>
							<g class="st25">
								<polygon class="st26" points="320.6,256.6 227.1,350.1 227.1,268.4 238.9,256.6 								"/>
								<polygon class="st26" points="377.3,256.6 227.1,406.8 227.1,365 335.5,256.6 								"/>
							</g>
							<g class="st25">
								<polygon class="st26" points="488.7,276.8 488.7,358.5 405,442.2 323.3,442.2 								"/>
								<polygon class="st26" points="488.7,373.4 488.7,415.2 461.7,442.2 419.9,442.2 								"/>
							</g>
						</g>
						<g>
							<path class="st27" d="M271.3,251.6l77.5-60.1c4.9-3.8,11.8-3.8,16.7,0l77.5,60.1v100.7H271.3V251.6z"/>
							<g>
								<rect x="291.1" y="198.2" class="st4" width="132" height="145.2"/>
								<rect x="299.1" y="206.9" class="st28" width="116.1" height="4.4"/>
								<rect x="299.1" y="215.8" class="st28" width="98.7" height="4.4"/>
								<rect x="299.1" y="224.7" class="st28" width="82.7" height="4.4"/>
								<rect x="299.1" y="241.8" class="st28" width="82.7" height="4.4"/>
								<rect x="299.1" y="250.3" class="st28" width="61.3" height="4.4"/>
								<rect x="357.1" y="268.2" class="st28" width="61.3" height="4.4"/>
								<rect x="368.6" y="276.9" class="st28" width="49.9" height="4.4"/>
							</g>
							<g>
								<polygon class="st29" points="357.1,301.9 271.3,251.6 271.3,352.3 								"/>
								<polygon class="st29" points="357.1,301.9 443,251.6 443,352.3 								"/>
								<path class="st30" d="M348.8,292.2l-77.5,60.1H443l-77.5-60.1C360.6,288.4,353.7,288.4,348.8,292.2z"/>
							</g>
						</g>
					</g>
				</g>
				<g>
					<g>
						<g>
							<path class="st3" d="M221.6,132.3c2.3,0.1,4.3,0.7,6.1,1.9c1.8,1.2,3.2,2.8,4.1,4.8c0.7,1.5,1.1,2.9,1.1,4.2
								c0,1.3-0.2,2.4-0.8,3.4c-0.6,0.9-1.4,1.7-2.4,2.2c-0.9,0.4-1.7,0.6-2.5,0.5c-0.8-0.1-1.5-0.4-2.2-1c-0.1,1.8-1.1,3.2-3,4.1
								c-1,0.5-2,0.6-3.1,0.5c-1.1-0.1-2.1-0.5-3.1-1.2c-1-0.7-1.7-1.7-2.3-2.9c-0.6-1.2-0.9-2.4-0.8-3.6c0-1.2,0.4-2.2,1-3.2
								c0.6-0.9,1.4-1.6,2.4-2.1c1.5-0.7,2.8-0.8,4.1-0.2l-0.6-1.2l4.1-1.9l3.6,7.6c0.3,0.5,0.5,0.9,0.8,1c0.3,0.1,0.6,0.1,1,0
								c1-0.5,1-2-0.3-4.6c-0.8-1.6-1.8-2.8-3.1-3.7c-1.3-0.9-2.8-1.3-4.5-1.4c-1.7,0-3.4,0.3-5.2,1.2c-1.7,0.8-3.1,1.9-4.1,3.3
								c-1,1.4-1.6,2.9-1.7,4.6c-0.1,1.7,0.2,3.3,1,5c0.8,1.7,1.9,3,3.2,4c1.4,1,2.9,1.5,4.6,1.6c1.7,0.1,3.4-0.3,5.2-1.1
								c1.8-0.8,3.3-2,4.4-3.5l2.2,2.2c-0.6,0.7-1.3,1.4-2.3,2.2c-1,0.7-2,1.3-3,1.8c-2.4,1.1-4.8,1.7-7.1,1.5
								c-2.3-0.1-4.4-0.8-6.2-2.1c-1.8-1.3-3.3-3-4.3-5.2c-1-2.2-1.5-4.4-1.3-6.6c0.2-2.2,1-4.3,2.4-6.2c1.4-1.9,3.3-3.4,5.7-4.6
								C217.1,132.7,219.4,132.2,221.6,132.3z M222.9,146.9c0.2-0.7,0.1-1.5-0.3-2.4c-0.4-0.9-1-1.5-1.7-1.8
								c-0.7-0.3-1.4-0.2-2.1,0.1c-0.7,0.3-1.2,0.9-1.4,1.6c-0.2,0.7-0.1,1.5,0.3,2.4c0.4,0.9,1,1.5,1.7,1.8
								c0.7,0.3,1.4,0.3,2.1-0.1C222.2,148.1,222.7,147.6,222.9,146.9z"/>
						</g>
					</g>
					<g>
						<g>
							<path class="st3" d="M449.5,137.6l-1.3,4.2l3.7,0.7l-0.7,3.8l-4.2-0.8l-1.4,4.3l-4-0.7l1.4-4.3l-3.6-0.7l-1.4,4.3l-4-0.7
								l1.4-4.3l-3.7-0.7l0.7-3.8l4.2,0.8l1.3-4.2l-3.7-0.7l0.7-3.8l4.2,0.8l1.4-4.3l4,0.7l-1.4,4.3l3.6,0.7l1.4-4.3l4,0.7l-1.4,4.3
								l3.7,0.7l-0.7,3.8L449.5,137.6z M445.5,136.8l-3.6-0.7l-1.3,4.2l3.6,0.7L445.5,136.8z"/>
						</g>
					</g>
					<g>
						<path class="st30" d="M256.7,394.9h-49.8c-15.1,0-27.4-12.2-27.4-27.4l0,0c0-15.1,12.2-27.4,27.4-27.4h22.4
							c15.1,0,27.4,12.2,27.4,27.4V394.9z"/>
						<path class="st4" d="M218.1,346.9c-11.4,0-20.7,9.3-20.7,20.7c0,11.4,9.3,20.7,20.7,20.7c11.4,0,20.7-9.3,20.7-20.7
							C238.8,356.1,229.5,346.9,218.1,346.9z M200.1,367.5c0-1.4,0.2-2.7,0.5-4c0.9-0.4,2.7-1.1,5.1-1.8c-0.6,3.1-0.8,6.6-0.3,10.3
							c-1.6-0.4-3.3-0.9-5.1-1.6C200.2,369.5,200.1,368.5,200.1,367.5z M208.4,361.1c4.6-0.9,10.8-1.3,18.3,0.1
							c0.7,3.6,1.1,7.7,0.4,11.9c-4.8,0.8-11.2,1.1-19-0.5C207.4,368.5,207.7,364.5,208.4,361.1z M229.5,361.9
							c2,0.5,4.1,1.1,6.2,1.8c0.3,1.2,0.4,2.5,0.4,3.9c0,1-0.1,2-0.3,3c-1,0.5-3,1.3-6,2C230.3,368.8,230.1,365.1,229.5,361.9z
							 M234.7,360.5c-2-0.6-3.9-1.2-5.8-1.6c-0.7-3-1.7-5.6-2.4-7.4C230.2,353.5,233.1,356.7,234.7,360.5z M222.9,350.2
							c0.5,0.9,2,4,3.1,8.2c-6.7-1.1-12.4-0.9-16.9-0.2c1.2-4,2.8-6.8,3.4-7.8c1.8-0.6,3.6-0.9,5.6-0.9
							C219.8,349.5,221.4,349.8,222.9,350.2z M208.6,352.3c-0.8,1.7-1.6,3.9-2.3,6.5c-1.9,0.4-3.4,0.9-4.6,1.4
							C203.2,356.9,205.6,354.1,208.6,352.3z M201.1,373.5c1.7,0.5,3.3,1,4.8,1.4c0.6,2.7,1.7,5.5,3.4,8.4
							C205.5,381.1,202.6,377.7,201.1,373.5z M213.7,385c-2.4-3.2-3.9-6.4-4.8-9.5c3.8,0.7,7.3,1,10.5,1c2.7,0,5.1-0.2,7.2-0.5
							c-0.8,3.1-2.2,6.1-4.3,9c-1.3,0.3-2.7,0.5-4.1,0.5C216.6,385.6,215.1,385.3,213.7,385z M226.4,383.5c1.5-2.6,2.4-5.3,3-8
							c2.3-0.5,4.2-1.1,5.5-1.6C233.4,378,230.3,381.5,226.4,383.5z"/>
					</g>
					<g>
						<g>
							<path class="st30" d="M452.5,428.7h49.8c15.1,0,27.4-12.2,27.4-27.4v0c0-15.1-12.2-27.4-27.4-27.4h-22.4
								c-15.1,0-27.4,12.2-27.4,27.4V428.7z"/>
						</g>
						<path class="st31" d="M511.6,393.5c0-7.7-12.3-14.4-20.5-7.7c-8.2-6.7-20.5,0-20.5,7.7c0,0-2.6,15.2,20.5,26.2
							C514.3,408.6,511.6,393.5,511.6,393.5z"/>
					</g>
					<path class="st3" d="M436.2,67.4c-0.3-0.1-0.6-0.2-1-0.3c-0.1-0.3-0.2-0.6-0.3-0.9c-0.5-1.3-1.2-2.5-2.5-3.8
						c-1.3,1.3-2,2.5-2.5,3.8c-0.1,0.3-0.2,0.6-0.3,0.9c-0.3,0.1-0.6,0.2-0.9,0.3c-1.3,0.5-2.5,1.2-3.8,2.5c1.3,1.3,2.5,2,3.8,2.5
						c0.3,0.1,0.6,0.2,0.9,0.3c0.1,0.3,0.2,0.6,0.3,1c0.5,1.3,1.2,2.5,2.5,3.8c1.4-1.3,2-2.5,2.5-3.8c0.1-0.3,0.2-0.6,0.3-0.9
						c0.3-0.1,0.6-0.2,0.9-0.3c1.3-0.5,2.5-1.2,3.8-2.5C438.7,68.6,437.5,67.9,436.2,67.4z"/>
					<path class="st3" d="M95.9,279c-0.3-0.1-0.6-0.2-1-0.3c-0.1-0.3-0.2-0.6-0.3-0.9c-0.5-1.3-1.2-2.5-2.5-3.8
						c-1.3,1.3-2,2.5-2.5,3.8c-0.1,0.3-0.2,0.6-0.3,0.9c-0.3,0.1-0.6,0.2-0.9,0.3c-1.3,0.5-2.5,1.2-3.8,2.5c1.3,1.3,2.5,2,3.8,2.5
						c0.3,0.1,0.6,0.2,0.9,0.3c0.1,0.3,0.2,0.6,0.3,1c0.5,1.3,1.2,2.5,2.5,3.8c1.4-1.3,2-2.5,2.5-3.8c0.1-0.3,0.2-0.6,0.3-0.9
						c0.3-0.1,0.6-0.2,0.9-0.3c1.3-0.5,2.5-1.2,3.8-2.5C98.4,280.2,97.1,279.5,95.9,279z"/>
					<path class="st3" d="M462.3,217.7c-0.3-0.1-0.6-0.2-1-0.3c-0.1-0.3-0.2-0.6-0.3-0.9c-0.5-1.3-1.2-2.5-2.5-3.8
						c-1.3,1.3-2,2.5-2.5,3.8c-0.1,0.3-0.2,0.6-0.3,0.9c-0.3,0.1-0.6,0.2-0.9,0.3c-1.3,0.5-2.5,1.2-3.8,2.5c1.3,1.3,2.5,2,3.8,2.5
						c0.3,0.1,0.6,0.2,0.9,0.3c0.1,0.3,0.2,0.6,0.3,1c0.5,1.3,1.2,2.5,2.5,3.8c1.4-1.3,2-2.5,2.5-3.8c0.1-0.3,0.2-0.6,0.3-0.9
						c0.3-0.1,0.6-0.2,0.9-0.3c1.3-0.5,2.5-1.2,3.8-2.5C464.8,218.9,463.5,218.2,462.3,217.7z"/>
					<path class="st2" d="M593.9,87c-0.2-0.1-0.3-0.1-0.5-0.2c0-0.2-0.1-0.3-0.2-0.5c-0.3-0.6-0.6-1.3-1.3-1.9
						c-0.7,0.6-1,1.3-1.3,1.9c-0.1,0.2-0.1,0.3-0.2,0.5c-0.2,0-0.3,0.1-0.5,0.2c-0.6,0.3-1.3,0.6-1.9,1.3c0.6,0.7,1.3,1,1.9,1.3
						c0.2,0.1,0.3,0.1,0.5,0.2c0,0.2,0.1,0.3,0.2,0.5c0.3,0.6,0.6,1.3,1.3,1.9c0.7-0.6,1-1.3,1.3-1.9c0.1-0.2,0.1-0.3,0.2-0.5
						c0.2,0,0.3-0.1,0.5-0.2c0.6-0.3,1.3-0.6,1.9-1.3C595.2,87.6,594.5,87.2,593.9,87z"/>
					<path class="st2" d="M632.9,199.6c-0.2-0.1-0.3-0.1-0.5-0.2c0-0.2-0.1-0.3-0.2-0.5c-0.3-0.6-0.6-1.3-1.3-1.9
						c-0.7,0.6-1,1.3-1.3,1.9c-0.1,0.2-0.1,0.3-0.2,0.5c-0.2,0-0.3,0.1-0.5,0.2c-0.6,0.3-1.3,0.6-1.9,1.3c0.6,0.7,1.3,1,1.9,1.3
						c0.2,0.1,0.3,0.1,0.5,0.2c0,0.2,0.1,0.3,0.2,0.5c0.3,0.6,0.6,1.3,1.3,1.9c0.7-0.6,1-1.3,1.3-1.9c0.1-0.2,0.1-0.3,0.2-0.5
						c0.2,0,0.3-0.1,0.5-0.2c0.6-0.3,1.3-0.6,1.9-1.3C634.1,200.1,633.5,199.8,632.9,199.6z"/>
					<path class="st2" d="M631.4,196.9c-0.2-0.1-0.3-0.1-0.5-0.2c0-0.2-0.1-0.3-0.2-0.5c-0.3-0.6-0.6-1.3-1.3-1.9
						c-0.7,0.6-1,1.3-1.3,1.9c-0.1,0.2-0.1,0.3-0.2,0.5c-0.2,0-0.3,0.1-0.5,0.2c-0.6,0.3-1.3,0.6-1.9,1.3c0.6,0.7,1.3,1,1.9,1.3
						c0.2,0.1,0.3,0.1,0.5,0.2c0,0.2,0.1,0.3,0.2,0.5c0.3,0.6,0.6,1.3,1.3,1.9c0.7-0.6,1-1.3,1.3-1.9c0.1-0.2,0.1-0.3,0.2-0.5
						c0.2,0,0.3-0.1,0.5-0.2c0.6-0.3,1.3-0.6,1.9-1.3C632.6,197.5,632,197.2,631.4,196.9z"/>
					<path class="st3" d="M174.7,231.3c-0.2-0.1-0.3-0.1-0.5-0.2c0-0.2-0.1-0.3-0.2-0.5c-0.3-0.6-0.6-1.3-1.3-1.9
						c-0.7,0.6-1,1.3-1.3,1.9c-0.1,0.2-0.1,0.3-0.2,0.5c-0.2,0-0.3,0.1-0.5,0.2c-0.6,0.3-1.3,0.6-1.9,1.3c0.6,0.7,1.3,1,1.9,1.3
						c0.2,0.1,0.3,0.1,0.5,0.2c0,0.2,0.1,0.3,0.2,0.5c0.3,0.6,0.6,1.3,1.3,1.9c0.7-0.6,1-1.3,1.3-1.9c0.1-0.2,0.1-0.3,0.2-0.5
						c0.2,0,0.3-0.1,0.5-0.2c0.6-0.3,1.3-0.6,1.9-1.3C176,231.9,175.4,231.6,174.7,231.3z"/>
					<path class="st3" d="M105.2,431.2c-0.2-0.1-0.3-0.1-0.5-0.2c0-0.2-0.1-0.3-0.2-0.5c-0.3-0.6-0.6-1.3-1.3-1.9
						c-0.7,0.6-1,1.3-1.3,1.9c-0.1,0.2-0.1,0.3-0.2,0.5c-0.2,0-0.3,0.1-0.5,0.2c-0.6,0.3-1.3,0.6-1.9,1.3c0.6,0.7,1.3,1,1.9,1.3
						c0.2,0.1,0.3,0.1,0.5,0.2c0,0.2,0.1,0.3,0.2,0.5c0.3,0.6,0.6,1.3,1.3,1.9c0.7-0.6,1-1.3,1.3-1.9c0.1-0.2,0.1-0.3,0.2-0.5
						c0.2,0,0.3-0.1,0.5-0.2c0.6-0.3,1.3-0.6,1.9-1.3C106.5,431.8,105.8,431.5,105.2,431.2z"/>
					<path class="st3" d="M374.3,131c-0.2-0.1-0.3-0.1-0.5-0.2c0-0.2-0.1-0.3-0.2-0.5c-0.3-0.6-0.6-1.3-1.3-1.9
						c-0.7,0.6-1,1.3-1.3,1.9c-0.1,0.2-0.1,0.3-0.2,0.5c-0.2,0-0.3,0.1-0.5,0.2c-0.6,0.3-1.3,0.6-1.9,1.3c0.6,0.7,1.3,1,1.9,1.3
						c0.2,0.1,0.3,0.1,0.5,0.2c0,0.2,0.1,0.3,0.2,0.5c0.3,0.6,0.6,1.3,1.3,1.9c0.7-0.6,1-1.3,1.3-1.9c0.1-0.2,0.1-0.3,0.2-0.5
						c0.2,0,0.3-0.1,0.5-0.2c0.6-0.3,1.3-0.6,1.9-1.3C375.5,131.6,374.9,131.2,374.3,131z"/>
					<path class="st3" d="M190.6,66.6c-0.2-0.1-0.3-0.1-0.5-0.2c0-0.2-0.1-0.3-0.2-0.5c-0.3-0.6-0.6-1.3-1.3-1.9
						c-0.7,0.6-1,1.3-1.3,1.9c-0.1,0.2-0.1,0.3-0.2,0.5c-0.2,0-0.3,0.1-0.5,0.2c-0.6,0.3-1.3,0.6-1.9,1.3c0.6,0.7,1.3,1,1.9,1.3
						c0.2,0.1,0.3,0.1,0.5,0.2c0,0.2,0.1,0.3,0.2,0.5c0.3,0.6,0.6,1.3,1.3,1.9c0.7-0.6,1-1.3,1.3-1.9c0.1-0.2,0.1-0.3,0.2-0.5
						c0.2,0,0.3-0.1,0.5-0.2c0.6-0.3,1.3-0.6,1.9-1.3C191.9,67.2,191.3,66.9,190.6,66.6z"/>
					<path class="st3" d="M583.1,237.1c-0.2-0.1-0.3-0.1-0.5-0.2c0-0.2-0.1-0.3-0.2-0.5c-0.3-0.6-0.6-1.3-1.3-1.9
						c-0.7,0.6-1,1.3-1.3,1.9c-0.1,0.2-0.1,0.3-0.2,0.5c-0.2,0-0.3,0.1-0.5,0.2c-0.6,0.3-1.3,0.6-1.9,1.3c0.6,0.7,1.3,1,1.9,1.3
						c0.2,0.1,0.3,0.1,0.5,0.2c0,0.2,0.1,0.3,0.2,0.5c0.3,0.6,0.6,1.3,1.3,1.9c0.7-0.6,1-1.3,1.3-1.9c0.1-0.2,0.1-0.3,0.2-0.5
						c0.2,0,0.3-0.1,0.5-0.2c0.6-0.3,1.3-0.6,1.9-1.3C584.3,237.7,583.7,237.4,583.1,237.1z"/>
					<path class="st2" d="M395.4,170.9c-0.2-0.1-0.3-0.1-0.5-0.2c0-0.2-0.1-0.3-0.2-0.5c-0.3-0.6-0.6-1.3-1.3-1.9
						c-0.7,0.6-1,1.3-1.3,1.9c-0.1,0.2-0.1,0.3-0.2,0.5c-0.2,0-0.3,0.1-0.5,0.2c-0.6,0.3-1.3,0.6-1.9,1.3c0.6,0.7,1.3,1,1.9,1.3
						c0.2,0.1,0.3,0.1,0.5,0.2c0,0.2,0.1,0.3,0.2,0.5c0.3,0.6,0.6,1.3,1.3,1.9c0.7-0.6,1-1.3,1.3-1.9c0.1-0.2,0.1-0.3,0.2-0.5
						c0.2,0,0.3-0.1,0.5-0.2c0.6-0.3,1.3-0.6,1.9-1.3C396.7,171.5,396.1,171.1,395.4,170.9z"/>
					<path class="st3" d="M323.9,95.8c-0.3-0.1-0.6-0.2-0.8-0.3c-0.1-0.3-0.2-0.6-0.3-0.8c-0.4-1.1-1-2.2-2.2-3.3
						c-1.2,1.1-1.8,2.2-2.2,3.3c-0.1,0.3-0.2,0.6-0.3,0.8c-0.3,0.1-0.6,0.2-0.8,0.3c-1.1,0.4-2.2,1-3.3,2.2c1.1,1.2,2.2,1.8,3.3,2.2
						c0.3,0.1,0.6,0.2,0.8,0.3c0.1,0.3,0.2,0.6,0.3,0.8c0.4,1.1,1,2.2,2.2,3.3c1.2-1.1,1.8-2.2,2.2-3.3c0.1-0.3,0.2-0.6,0.3-0.8
						c0.3-0.1,0.6-0.2,0.8-0.3c1.1-0.4,2.2-1,3.3-2.2C326.1,96.9,325,96.3,323.9,95.8z"/>
					<path class="st3" d="M154.2,176.6c-0.3-0.1-0.6-0.2-0.8-0.3c-0.1-0.3-0.2-0.6-0.3-0.8c-0.4-1.1-1-2.2-2.2-3.3
						c-1.2,1.1-1.8,2.2-2.2,3.3c-0.1,0.3-0.2,0.6-0.3,0.8c-0.3,0.1-0.6,0.2-0.8,0.3c-1.1,0.4-2.2,1-3.3,2.2c1.1,1.2,2.2,1.8,3.3,2.2
						c0.3,0.1,0.6,0.2,0.8,0.3c0.1,0.3,0.2,0.6,0.3,0.8c0.4,1.1,1,2.2,2.2,3.3c1.2-1.1,1.8-2.2,2.2-3.3c0.1-0.3,0.2-0.6,0.3-0.8
						c0.3-0.1,0.6-0.2,0.8-0.3c1.1-0.4,2.2-1,3.3-2.2C156.4,177.6,155.3,177,154.2,176.6z"/>
					<path class="st2" d="M513,149.7c-0.3-0.1-0.6-0.2-0.8-0.3c-0.1-0.3-0.2-0.6-0.3-0.8c-0.4-1.1-1-2.2-2.2-3.3
						c-1.2,1.1-1.8,2.2-2.2,3.3c-0.1,0.3-0.2,0.6-0.3,0.8c-0.3,0.1-0.6,0.2-0.8,0.3c-1.1,0.4-2.2,1-3.3,2.2c1.1,1.2,2.2,1.8,3.3,2.2
						c0.3,0.1,0.6,0.2,0.8,0.3c0.1,0.3,0.2,0.6,0.3,0.8c0.4,1.1,1,2.2,2.2,3.3c1.2-1.1,1.8-2.2,2.2-3.3c0.1-0.3,0.2-0.6,0.3-0.8
						c0.3-0.1,0.6-0.2,0.8-0.3c1.1-0.4,2.2-1,3.3-2.2C515.2,150.8,514.1,150.2,513,149.7z"/>
					<path class="st2" d="M679.2,112.4c-0.3-0.1-0.6-0.2-0.8-0.3c-0.1-0.3-0.2-0.6-0.3-0.8c-0.4-1.1-1-2.2-2.2-3.3
						c-1.2,1.1-1.8,2.2-2.2,3.3c-0.1,0.3-0.2,0.6-0.3,0.8c-0.3,0.1-0.6,0.2-0.8,0.3c-1.1,0.4-2.2,1-3.3,2.2c1.1,1.2,2.2,1.8,3.3,2.2
						c0.3,0.1,0.6,0.2,0.8,0.3c0.1,0.3,0.2,0.6,0.3,0.8c0.4,1.1,1,2.2,2.2,3.3c1.2-1.1,1.8-2.2,2.2-3.3c0.1-0.3,0.2-0.6,0.3-0.8
						c0.3-0.1,0.6-0.2,0.8-0.3c1.1-0.4,2.2-1,3.3-2.2C681.4,113.4,680.3,112.8,679.2,112.4z"/>
					<path class="st2" d="M504.8,61c-0.3-0.1-0.6-0.2-0.8-0.3c-0.1-0.3-0.2-0.6-0.3-0.8c-0.4-1.1-1-2.2-2.2-3.3
						c-1.2,1.1-1.8,2.2-2.2,3.3c-0.1,0.3-0.2,0.6-0.3,0.8c-0.3,0.1-0.6,0.2-0.8,0.3c-1.1,0.4-2.2,1-3.3,2.2c1.1,1.2,2.2,1.8,3.3,2.2
						c0.3,0.1,0.6,0.2,0.8,0.3c0.1,0.3,0.2,0.6,0.3,0.8c0.4,1.1,1,2.2,2.2,3.3c1.2-1.1,1.8-2.2,2.2-3.3c0.1-0.3,0.2-0.6,0.3-0.8
						c0.3-0.1,0.6-0.2,0.8-0.3c1.1-0.4,2.2-1,3.3-2.2C507,62.1,505.9,61.5,504.8,61z"/>
				</g>
			</g>
		</g>
	</g>
</g>
<g id="DESIGNED_BY_FREEPIK">
</g>
</svg>
